<svg width="1000" height="1000" viewBox="0 0 1000 1000" fill="none" xmlns="http://www.w3.org/2000/svg">
<g clip-path="url(#clip0_389_222)">
<path d="M940.662 188.282L908.73 689.306L603.422 32.344L940.662 188.282ZM729.195 836.132L498.502 967.656L267.805 836.132L280.846 759.476H716.169L729.195 836.132ZM87.944 689.306L56.338 188.282L393.579 32.344L87.944 689.306Z" fill="#AA1BB6"/>
<path fill-rule="evenodd" clip-rule="evenodd" d="M715.088 437.822L715.057 438.045C701.556 516.716 649.341 566.451 558.414 587.25C580.901 603.01 607.16 607.28 637.562 600.137C580.793 621.186 530.711 621.966 487.178 602.66C494.836 629.769 512.796 649.323 541.332 661.618C470.603 646.431 424.222 597.455 402.291 514.731C391.094 529.508 391.942 554.148 404.784 589.058C366.487 542.697 359.345 493.959 383.51 442.965C408.839 386.918 454.847 364.461 521.558 375.605C612.119 474.967 670.503 503.982 696.445 462.535C707.795 427.086 696.126 383.477 661.364 331.865C636.402 296.606 607.004 271.877 573.417 258.071C566.541 238.552 554.308 224.884 537.142 217.731C525.183 212.155 514.126 211.066 504.444 215.006C502.871 215.653 501.304 216.314 499.742 216.988C484.328 223.588 458.722 234.551 430.207 223.723C409.108 215.711 394.299 220.848 385.78 239.132C377.388 257.881 371.766 268.062 368.914 269.675C364.575 273.056 355.346 276.582 341.307 280.202C327.269 283.823 318.464 289.41 314.892 296.962C308.303 312.969 305.916 325.885 307.731 335.712C304.569 347.905 299.482 356.137 292.482 360.22C290.946 361.111 289.398 361.982 287.84 362.834C280.505 366.88 276.834 368.904 274.995 377.544L274.845 378.247C272.764 387.978 272.075 391.197 282.088 423.642C275.551 471.764 283.488 518.12 305.892 562.517C305.864 562.463 337.216 640.771 423.472 681.59C514.834 719.367 596.178 705.976 667.504 641.417C625.246 649.936 594.145 650.523 574.344 643.302C649.658 637.807 698.938 601.084 722.461 533.179C691.141 557.363 666.889 571.462 649.868 575.258C679.027 556.678 698.973 535.252 709.852 511.143C720.732 487.035 722.477 462.594 715.088 437.822ZM600.125 337.927C593.245 346.811 584.101 367.487 602.561 379.119C621.021 390.752 612.796 376.191 606.376 367.456C599.956 358.722 600.125 337.927 600.125 337.927Z" fill="#AA1BB6"/>
</g>
<defs>
<clipPath id="clip0_389_222">
<rect width="885" height="936" fill="white" transform="translate(56 32)"/>
</clipPath>
</defs>
</svg>
