<?xml version="1.0" standalone="no"?>
<!DOCTYPE svg PUBLIC "-//W3C//DTD SVG 20010904//EN"
 "http://www.w3.org/TR/2001/REC-SVG-20010904/DTD/svg10.dtd">
<svg version="1.0" xmlns="http://www.w3.org/2000/svg"
 width="700.000000pt" height="700.000000pt" viewBox="0 0 700.000000 700.000000"
 preserveAspectRatio="xMidYMid meet">
<metadata>
Created by potrace 1.14, written by Peter Selinger 2001-2017
</metadata>
<g transform="translate(0.000000,700.000000) scale(0.100000,-0.100000)"
fill="#000000" stroke="none">
<path d="M1573 6227 c-1172 -542 -1173 -542 -1173 -572 -2 -83 216 -3463 222
-3457 10 10 2129 4564 2126 4568 -2 1 -531 -241 -1175 -539z"/>
<path d="M4233 6756 c3 -7 481 -1038 1064 -2291 l1058 -2278 7 49 c8 50 218
3350 218 3414 l0 35 -1147 530 c-1322 611 -1207 559 -1200 541z"/>
<path d="M3465 5469 c-186 -76 -297 -84 -461 -33 -102 32 -164 30 -222 -9 -32
-21 -52 -51 -112 -167 -68 -133 -75 -142 -119 -165 -26 -13 -86 -35 -132 -48
-106 -31 -159 -57 -192 -96 -36 -44 -68 -150 -77 -255 -10 -135 -38 -180 -154
-249 -31 -18 -52 -39 -62 -62 -20 -50 -17 -149 8 -235 19 -67 22 -100 23 -310
1 -204 4 -249 23 -340 58 -264 179 -532 341 -750 73 -98 246 -271 343 -344
186 -139 405 -237 642 -286 470 -99 883 5 1273 318 45 37 81 67 80 68 -1 1
-54 -7 -117 -18 -145 -25 -411 -28 -480 -6 l-45 14 65 8 c431 50 733 256 904
618 25 51 48 104 52 117 6 24 5 24 -37 -8 -147 -111 -345 -227 -419 -245 l-25
-7 25 18 c77 56 183 148 224 195 166 187 244 409 216 615 -17 127 -21 127 -51
10 -119 -455 -450 -764 -965 -900 -47 -13 -86 -27 -86 -32 -1 -16 121 -73 191
-91 46 -12 97 -15 182 -13 l119 4 -66 -22 c-176 -59 -418 -90 -581 -73 -114
12 -238 40 -306 69 -27 12 -50 21 -52 21 -2 0 2 -17 9 -38 46 -128 131 -233
256 -314 41 -26 70 -48 64 -48 -7 0 -47 12 -90 26 -386 129 -647 410 -795 856
-23 68 -43 125 -45 127 -9 9 -44 -90 -50 -140 -7 -65 9 -181 40 -283 13 -42
20 -73 15 -71 -13 9 -114 165 -142 220 -96 194 -113 437 -45 650 30 95 112
254 166 326 103 135 241 229 399 270 97 25 273 35 374 20 l76 -10 159 -162
c393 -398 651 -571 850 -571 125 0 213 72 235 192 17 98 7 265 -24 365 -104
344 -360 697 -641 883 -58 39 -130 80 -159 92 -48 21 -55 28 -85 92 -66 137
-209 237 -350 244 -60 4 -77 0 -167 -37z m759 -996 c4 -13 23 -48 42 -80 19
-31 34 -60 34 -65 0 -30 -106 25 -136 69 -27 41 -24 118 6 183 l25 54 11 -70
c6 -38 14 -79 18 -91z"/>
<path d="M1920 1416 c-24 -146 -42 -267 -40 -270 3 -2 365 -210 805 -460 473
-270 806 -454 815 -451 8 3 372 209 808 458 646 368 792 455 792 472 -1 11
-20 130 -43 265 l-43 245 -1524 3 -1525 2 -45 -264z"/>
</g>
</svg>
