<svg width="24" height="24" viewBox="0 0 24 24" fill="none" xmlns="http://www.w3.org/2000/svg">
<path d="M15.3493 5.55011C14.5893 5.54999 13.8596 5.84824 13.3172 6.38068C12.7749 6.91313 12.4632 7.63721 12.4493 8.39711L12.4213 9.97211C12.4197 10.0567 12.4002 10.1399 12.3641 10.2164C12.328 10.2929 12.2762 10.3609 12.212 10.416C12.1477 10.471 12.0726 10.5119 11.9915 10.5359C11.9104 10.5599 11.8251 10.5664 11.7413 10.5551L10.1793 10.3431C8.12631 10.0631 6.15831 9.11711 4.26931 7.54411C3.67231 10.8541 4.83931 13.1471 7.65231 14.9161L9.39931 16.0141C9.48238 16.0662 9.55142 16.1378 9.60039 16.2228C9.64936 16.3077 9.67677 16.4033 9.68022 16.5013C9.68368 16.5993 9.66307 16.6966 9.6202 16.7848C9.57733 16.873 9.51351 16.9493 9.43431 17.0071L7.84231 18.1701C8.78931 18.2291 9.68831 18.1871 10.4343 18.0391C15.1523 17.0971 18.2893 13.5471 18.2893 7.69111C18.2893 7.21311 17.2763 5.55011 15.3493 5.55011ZM10.4493 8.36011C10.4668 7.39616 10.7682 6.45878 11.3159 5.66534C11.8635 4.87189 12.6331 4.25763 13.5282 3.89948C14.4233 3.54133 15.4042 3.45519 16.3481 3.65186C17.2919 3.84853 18.1567 4.31926 18.8343 5.00511C19.5453 5.00011 20.1503 5.18011 21.5023 4.36011C21.1683 6.00011 21.0023 6.71211 20.2893 7.69111C20.2893 15.3331 15.5923 19.0491 10.8253 20.0001C7.55831 20.6521 2.80531 19.5811 1.44531 18.1591C2.13831 18.1051 4.95831 17.8021 6.58831 16.6091C5.20831 15.6991 -0.279688 12.4691 3.32731 3.78611C5.02065 5.76345 6.73731 7.10911 8.47731 7.82311C9.63431 8.29811 9.91931 8.28911 10.4503 8.36111" fill="#CF8FC5"/>
</svg>
