<svg xmlns="http://www.w3.org/2000/svg" width="3000" height="1000"><path d="M1555 588l-188 80 221 27z" fill="#fcf4f7" stroke="#fcf4f7" stroke-width="1.51"/><path d="M1555 588l-174-22-14 102z" fill="#fef7f5" stroke="#fef7f5" stroke-width="1.51"/><path d="M1367 668l-30 188 251-161z" fill="#f8e7f2" stroke="#f8e7f2" stroke-width="1.51"/><path d="M1175 478l134 247 58-57z" fill="#fdf2ec" stroke="#fdf2ec" stroke-width="1.51"/><path d="M1309 725l28 131 30-188z" fill="#f8e4ed" stroke="#f8e4ed" stroke-width="1.51"/><path d="M1309 725l-35 129 63 2z" fill="#f5dae9" stroke="#f5dae9" stroke-width="1.51"/><path d="M1600 1053l60-132-323-65z" fill="#e8b6ea" stroke="#e8b6ea" stroke-width="1.51"/><path d="M1337 856l323 65-72-226z" fill="#f4dbf2" stroke="#f4dbf2" stroke-width="1.51"/><path d="M1588 695l208-48-241-59z" fill="#fcf6fd" stroke="#fcf6fd" stroke-width="1.51"/><path d="M1660 921l51-40-123-186z" fill="#f3daf7" stroke="#f3daf7" stroke-width="1.51"/><path d="M1711 881l85-234-208 48z" fill="#f7e8fa" stroke="#f7e8fa" stroke-width="1.51"/><path d="M1555 588l-76-249-98 227z" fill="#fff9f2" stroke="#fff9f2" stroke-width="1.51"/><path d="M1381 566l-206-88 192 190z" fill="#fff7ef" stroke="#fff7ef" stroke-width="1.51"/><path d="M1512 312l-33 27 76 249z" fill="#fff6ea" stroke="#fff6ea" stroke-width="1.51"/><path d="M1796 647l-5-154-236 95z" fill="#fefafe" stroke="#fefafe" stroke-width="1.51"/><path d="M1479 339l-304 139 206 88z" fill="#fff5e8" stroke="#fff5e8" stroke-width="1.51"/><path d="M1309 725l-250 79 215 50z" fill="#f6dae3" stroke="#f6dae3" stroke-width="1.51"/><path d="M1479 339l-237-118-67 257z" fill="#ffeed6" stroke="#ffeed6" stroke-width="1.51"/><path d="M1755 347l-243-35 43 276z" fill="#fff8ee" stroke="#fff8ee" stroke-width="1.51"/><path d="M1826 1118l40-246-155 9z" fill="#e4aeec" stroke="#e4aeec" stroke-width="1.51"/><path d="M1336 1057l264-4-263-197z" fill="#e5abe3" stroke="#e5abe3" stroke-width="1.51"/><path d="M1796 647l91-15-96-139z" fill="#fbf4fd" stroke="#fbf4fd" stroke-width="1.51"/><path d="M1866 872l21-240-91 15z" fill="#f6e5f9" stroke="#f6e5f9" stroke-width="1.51"/><path d="M1866 872l-70-225-85 234z" fill="#f3dcf7" stroke="#f3dcf7" stroke-width="1.51"/><path d="M1274 854l62 203 1-201z" fill="#eab7e1" stroke="#eab7e1" stroke-width="1.51"/><path d="M1791 493l-36-146-200 241z" fill="#fef9f6" stroke="#fef9f6" stroke-width="1.51"/><path d="M2034 420l-279-73 36 146z" fill="#fcefee" stroke="#fcefee" stroke-width="1.51"/><path d="M1826 1118l-115-237-51 40z" fill="#e4aeec" stroke="#e4aeec" stroke-width="1.51"/><path d="M1016 595l43 209 250-79z" fill="#fae4e1" stroke="#fae4e1" stroke-width="1.51"/><path d="M1274 854l-130 271 192-68z" fill="#e4a3d9" stroke="#e4a3d9" stroke-width="1.51"/><path d="M1175 478l-159 117 293 130z" fill="#fef1e5" stroke="#fef1e5" stroke-width="1.51"/><path d="M1512 312l-41-131 8 158z" fill="#ffebd0" stroke="#ffebd0" stroke-width="1.51"/><path d="M1175 478l-193-12 34 129z" fill="#ffefd8" stroke="#ffefd8" stroke-width="1.51"/><path d="M1721 223l-250-42 41 131z" fill="#ffe7c7" stroke="#ffe7c7" stroke-width="1.51"/><path d="M1471 181l-229 40 237 118z" fill="#ffe5c2" stroke="#ffe5c2" stroke-width="1.51"/><path d="M1755 347l-34-124-209 89z" fill="#ffefdb" stroke="#ffefdb" stroke-width="1.51"/><path d="M2037 236l-316-13 34 124z" fill="#fee4d1" stroke="#fee4d1" stroke-width="1.51"/><path d="M1028 299l-46 167 193 12z" fill="#ffeacf" stroke="#ffeacf" stroke-width="1.51"/><path d="M802 597l65 341 192-134z" fill="#f9cec3" stroke="#f9cec3" stroke-width="1.51"/><path d="M1242 221l-91 9 24 248z" fill="#ffe8c9" stroke="#ffe8c9" stroke-width="1.51"/><path d="M998 76l153 154 30-287z" fill="#ffd69f" stroke="#ffd69f" stroke-width="1.51"/><path d="M1336 1057l31 158 233-162z" fill="#dd9bdd" stroke="#dd9bdd" stroke-width="1.51"/><path d="M1600 1053l226 65-166-197z" fill="#e1a4e9" stroke="#e1a4e9" stroke-width="1.51"/><path d="M1144 1125l223 90-31-158z" fill="#dc97d4" stroke="#dc97d4" stroke-width="1.51"/><path d="M1124 1123l20 2 130-271z" fill="#e29cd3" stroke="#e29cd3" stroke-width="1.51"/><path d="M1716 1212l110-94-226-65z" fill="#db9ae4" stroke="#db9ae4" stroke-width="1.51"/><path d="M982 466l-49 36 83 93z" fill="#ffeace" stroke="#ffeace" stroke-width="1.51"/><path d="M1059 804l65 319 150-269z" fill="#e9b2d7" stroke="#e9b2d7" stroke-width="1.51"/><path d="M867 380l66 122 49-36z" fill="#ffe4c0" stroke="#ffe4c0" stroke-width="1.51"/><path d="M867 938l257 185-65-319z" fill="#e8a5c8" stroke="#e8a5c8" stroke-width="1.51"/><path d="M1144 1125l72 181 151-91z" fill="#d591cd" stroke="#d591cd" stroke-width="1.51"/><path d="M1471 181l-49-222-180 262z" fill="#ffddaf" stroke="#ffddaf" stroke-width="1.51"/><path d="M1721 223L1507 95l-36 86z" fill="#ffe0b7" stroke="#ffe0b7" stroke-width="1.51"/><path d="M1151 230l-123 69 147 179z" fill="#fee8c9" stroke="#fee8c9" stroke-width="1.51"/><path d="M1506 1304l210-92-116-159z" fill="#d89ae0" stroke="#d89ae0" stroke-width="1.51"/><path d="M1887 632l147-212-243 73z" fill="#fbf1f8" stroke="#fbf1f8" stroke-width="1.51"/><path d="M2190 533l-156-113-147 212z" fill="#f8e9f7" stroke="#f8e9f7" stroke-width="1.51"/><path d="M2130 769l-243-137-21 240z" fill="#f2daf7" stroke="#f2daf7" stroke-width="1.51"/><path d="M1826 1118l206-147-166-99z" fill="#e0a4e9" stroke="#e0a4e9" stroke-width="1.51"/><path d="M1950 1224l82-253-206 147z" fill="#d791e2" stroke="#d791e2" stroke-width="1.51"/><path d="M1367 1215l139 89 94-251z" fill="#d898db" stroke="#d898db" stroke-width="1.51"/><path d="M1216 1306l290-2-139-89z" fill="#d091d1" stroke="#d091d1" stroke-width="1.51"/><path d="M2130 779v-10l-264 103z" fill="#eecdf3" stroke="#eecdf3" stroke-width="1.51"/><path d="M2032 971l98-192-264 93z" fill="#e8bbef" stroke="#e8bbef" stroke-width="1.51"/><path d="M802 597l257 207-43-209z" fill="#fde1cd" stroke="#fde1cd" stroke-width="1.51"/><path d="M1028 299l-161 81 115 86z" fill="#ffe2bc" stroke="#ffe2bc" stroke-width="1.51"/><path d="M933 502l-131 95 214-2z" fill="#ffe8ca" stroke="#ffe8ca" stroke-width="1.51"/><path d="M859 107l8 273 161-81z" fill="#ffd59d" stroke="#ffd59d" stroke-width="1.51"/><path d="M867 380l-65 217 131-95z" fill="#ffe2bc" stroke="#ffe2bc" stroke-width="1.51"/><path d="M1076 1292l68-167-20-2z" fill="#d990c8" stroke="#d990c8" stroke-width="1.51"/><path d="M1076 1292l140 14-72-181z" fill="#d38dc6" stroke="#d38dc6" stroke-width="1.51"/><path d="M2034 420l3-184-282 111z" fill="#fae6e1" stroke="#fae6e1" stroke-width="1.51"/><path d="M1721 223l-64-239-150 111z" fill="#ffe2ba" stroke="#ffe2ba" stroke-width="1.51"/><path d="M2302 379l-238-82-30 123z" fill="#f7dbe3" stroke="#f7dbe3" stroke-width="1.51"/><path d="M2064 297l-27-61-3 184z" fill="#f8dedd" stroke="#f8dedd" stroke-width="1.51"/><path d="M1894 87L1657-16l64 239z" fill="#ffddb9" stroke="#ffddb9" stroke-width="1.51"/><path d="M1507 95l-85-136 49 222z" fill="#ffdfb3" stroke="#ffdfb3" stroke-width="1.51"/><path d="M1657-16l-235-25 85 136z" fill="#ffdbaa" stroke="#ffdbaa" stroke-width="1.51"/><path d="M1151 230L998 76l30 223z" fill="#ffd59e" stroke="#ffd59e" stroke-width="1.51"/><path d="M2037 236L1894 87l-173 136z" fill="#ffd7b8" stroke="#ffd7b8" stroke-width="1.51"/><path d="M2130 769l60-236-303 99z" fill="#f5e1f8" stroke="#f5e1f8" stroke-width="1.51"/><path d="M2120 84l-60-49-23 201z" fill="#fbccb6" stroke="#fbccb6" stroke-width="1.51"/><path d="M2271 658l-81-125-60 236z" fill="#f1d7f6" stroke="#f1d7f6" stroke-width="1.51"/><path d="M2032 971l102 22-4-214z" fill="#e1a8eb" stroke="#e1a8eb" stroke-width="1.51"/><path d="M1716 1212l234 12-124-106z" fill="#d593e0" stroke="#d593e0" stroke-width="1.51"/><path d="M1506 1304l444-80-234-12z" fill="#d194dd" stroke="#d194dd" stroke-width="1.51"/><path d="M2089 1138l45-145-102-22z" fill="#d88fe4" stroke="#d88fe4" stroke-width="1.51"/><path d="M2130 779l141-121-141 111z" fill="#efcff4" stroke="#efcff4" stroke-width="1.51"/><path d="M802 597L634 784l233 154z" fill="#fac9b6" stroke="#fac9b6" stroke-width="1.51"/><path d="M741 401l8 190 53 6z" fill="#ffe0b7" stroke="#ffe0b7" stroke-width="1.51"/><path d="M867 1164l209 128 48-169z" fill="#d88abd" stroke="#d88abd" stroke-width="1.51"/><path d="M867 938v226l257-41z" fill="#e08cba" stroke="#e08cba" stroke-width="1.51"/><path d="M751 975l66 68 50-105z" fill="#e792ab" stroke="#e792ab" stroke-width="1.51"/><path d="M867 380l-126 21 61 196z" fill="#ffdeb0" stroke="#ffdeb0" stroke-width="1.51"/><path d="M1181-57l-30 287 91-9z" fill="#ffd8a3" stroke="#ffd8a3" stroke-width="1.51"/><path d="M1950 1224l139-86-57-167z" fill="#d58ce1" stroke="#d58ce1" stroke-width="1.51"/><path d="M739 182l2 219 126-21z" fill="#ffd69e" stroke="#ffd69e" stroke-width="1.51"/><path d="M1422-41l-241-16 61 278z" fill="#ffd8a4" stroke="#ffd8a4" stroke-width="1.51"/><path d="M817 1043l50 121V938z" fill="#e388ad" stroke="#e388ad" stroke-width="1.51"/><path d="M817 1043l-215 243 265-122z" fill="#dc7ea2" stroke="#dc7ea2" stroke-width="1.51"/><path d="M634 784l117 191 116-37z" fill="#efa8af" stroke="#efa8af" stroke-width="1.51"/><path d="M634 784l168-187-53-6z" fill="#ffd9b8" stroke="#ffd9b8" stroke-width="1.51"/><path d="M2190 533l112-154-268 41z" fill="#f6dded" stroke="#f6dded" stroke-width="1.51"/><path d="M2307 976l-36-318-141 121z" fill="#e9bef0" stroke="#e9bef0" stroke-width="1.51"/><path d="M2307 976l-177-197 4 214z" fill="#dfa2e9" stroke="#dfa2e9" stroke-width="1.51"/><path d="M2271 658l10-129-91 4z" fill="#f2d8f6" stroke="#f2d8f6" stroke-width="1.51"/><path d="M1402-269l-100 136 120 92z" fill="#ffca8f" stroke="#ffca8f" stroke-width="1.51"/><path d="M1422-41l-120-92-121 76z" fill="#ffce8e" stroke="#ffce8e" stroke-width="1.51"/><path d="M998 76l-139 31 169 192z" fill="#ffce8c" stroke="#ffce8c" stroke-width="1.51"/><path d="M811 17l48 90 139-31z" fill="#ffca82" stroke="#ffca82" stroke-width="1.51"/><path d="M1111-87L998 76l183-133z" fill="#ffcd8b" stroke="#ffcd8b" stroke-width="1.51"/><path d="M1133-155l-22 68 70 30z" fill="#ffc883" stroke="#ffc883" stroke-width="1.51"/><path d="M1657-16l-119-156-116 131z" fill="#ffd29a" stroke="#ffd29a" stroke-width="1.51"/><path d="M1702-238l-164 66 119 156z" fill="#ffcf9a" stroke="#ffcf9a" stroke-width="1.51"/><path d="M616 570l18 214 115-193z" fill="#ffd9b8" stroke="#ffd9b8" stroke-width="1.51"/><path d="M1894 87l-101-216-136 113z" fill="#ffd3a7" stroke="#ffd3a7" stroke-width="1.51"/><path d="M2002-20l-209-109 101 216z" fill="#ffcea5" stroke="#ffcea5" stroke-width="1.51"/><path d="M2060 35l-166 52 143 149z" fill="#fdd0b7" stroke="#fdd0b7" stroke-width="1.51"/><path d="M2120 84l-83 152 27 61z" fill="#facdbb" stroke="#facdbb" stroke-width="1.51"/><path d="M2060 35l-58-55-108 107z" fill="#fdceb0" stroke="#fdceb0" stroke-width="1.51"/><path d="M2176-242l-267 79 93 143z" fill="#ffbc97" stroke="#ffbc97" stroke-width="1.51"/><path d="M2302 379L2120 84l-56 213z" fill="#f7cec9" stroke="#f7cec9" stroke-width="1.51"/><path d="M741 401L616 570l133 21z" fill="#ffe0b6" stroke="#ffe0b6" stroke-width="1.51"/><path d="M442 433l174 137 125-169z" fill="#ffdeb1" stroke="#ffdeb1" stroke-width="1.51"/><path d="M2281 529l21-150-112 154z" fill="#f2d4ee" stroke="#f2d4ee" stroke-width="1.51"/><path d="M2521 584l-219-205-21 150z" fill="#edc5ec" stroke="#edc5ec" stroke-width="1.51"/><path d="M2089 1138l218-162-173 17z" fill="#d688e2" stroke="#d688e2" stroke-width="1.51"/><path d="M2271 658l250-74-240-55z" fill="#edc7f2" stroke="#edc7f2" stroke-width="1.51"/><path d="M859 107l-120 75 128 198z" fill="#ffca83" stroke="#ffca83" stroke-width="1.51"/><path d="M765 27l-26 155 120-75z" fill="#fec576" stroke="#fec576" stroke-width="1.51"/><path d="M848-151L811 17l187 59z" fill="#ffc16f" stroke="#ffc16f" stroke-width="1.51"/><path d="M1302-133l-169-22 48 98z" fill="#ffc986" stroke="#ffc986" stroke-width="1.51"/><path d="M1402-269l-269 114 169 22z" fill="#ffc688" stroke="#ffc688" stroke-width="1.51"/><path d="M634 784l-152 50 269 141z" fill="#f3b3b1" stroke="#f3b3b1" stroke-width="1.51"/><path d="M549 1208l53 78 215-243z" fill="#db7ea2" stroke="#db7ea2" stroke-width="1.51"/><path d="M616 570l-61 192 79 22z" fill="#fdd3b7" stroke="#fdd3b7" stroke-width="1.51"/><path d="M482 834l73-72-152-60z" fill="#fbc8b1" stroke="#fbc8b1" stroke-width="1.51"/><path d="M848-151L998 76l113-163z" fill="#ffc375" stroke="#ffc375" stroke-width="1.51"/><path d="M1793-129l-91-109-45 222z" fill="#ffcd9b" stroke="#ffcd9b" stroke-width="1.51"/><path d="M1538-172l-136-97 20 228z" fill="#ffca92" stroke="#ffca92" stroke-width="1.51"/><path d="M1909-163l-207-75 91 109z" fill="#ffc697" stroke="#ffc697" stroke-width="1.51"/><path d="M2176-242L2002-20l58 55z" fill="#febd9a" stroke="#febd9a" stroke-width="1.51"/><path d="M2002-20l-93-143-116 34z" fill="#ffc69a" stroke="#ffc69a" stroke-width="1.51"/><path d="M1702-238l-300-31 136 97z" fill="#ffc792" stroke="#ffc792" stroke-width="1.51"/><path d="M2307 976l88-34-124-284z" fill="#dfa1e9" stroke="#dfa1e9" stroke-width="1.51"/><path d="M2516 1110l-121-168-88 34z" fill="#cb6cdc" stroke="#cb6cdc" stroke-width="1.51"/><path d="M811 17l-46 10 94 80z" fill="#fec374" stroke="#fec374" stroke-width="1.51"/><path d="M424 267l18 166 299-32z" fill="#ffd8a4" stroke="#ffd8a4" stroke-width="1.51"/><path d="M848-151L765 27l46-10z" fill="#febb60" stroke="#febb60" stroke-width="1.51"/><path d="M2120 84l143-30-203-19z" fill="#f9c6b3" stroke="#f9c6b3" stroke-width="1.51"/><path d="M2302 379l-39-325-143 30z" fill="#f7bfb3" stroke="#f7bfb3" stroke-width="1.51"/><path d="M2351 41l-88 13 223 189z" fill="#f0abb0" stroke="#f0abb0" stroke-width="1.51"/><path d="M2089 1138l223 89-5-251z" fill="#cd7adc" stroke="#cd7adc" stroke-width="1.51"/><path d="M1950 1224l362 3-223-89z" fill="#cc81db" stroke="#cc81db" stroke-width="1.51"/><path d="M1506 1304l806-77-362-3z" fill="#cd8bda" stroke="#cd8bda" stroke-width="1.51"/><path d="M555 762l-73 72 152-50z" fill="#f9c6b5" stroke="#f9c6b5" stroke-width="1.51"/><path d="M403 702l152 60 61-192z" fill="#ffd6b7" stroke="#ffd6b7" stroke-width="1.51"/><path d="M2395 942l113-252-237-32z" fill="#e3aeec" stroke="#e3aeec" stroke-width="1.51"/><path d="M2548 932l-40-242-113 252z" fill="#d78ce3" stroke="#d78ce3" stroke-width="1.51"/><path d="M763-203l85 52 285-4z" fill="#ffb864" stroke="#ffb864" stroke-width="1.51"/><path d="M1133-155l-285 4 263 64z" fill="#ffc077" stroke="#ffc077" stroke-width="1.51"/><path d="M2508 690l13-106-250 74z" fill="#e7b7ee" stroke="#e7b7ee" stroke-width="1.51"/><path d="M548 143l191 39 26-155z" fill="#fec576" stroke="#fec576" stroke-width="1.51"/><path d="M548 143l193 258-2-219z" fill="#ffcc87" stroke="#ffcc87" stroke-width="1.51"/><path d="M514-81l34 224L765 27z" fill="#fec16f" stroke="#fec16f" stroke-width="1.51"/><path d="M549 1208l268-165-66-68z" fill="#e182a6" stroke="#e182a6" stroke-width="1.51"/><path d="M867 1164l-265 122 474 6z" fill="#d57ca3" stroke="#d57ca3" stroke-width="1.51"/><path d="M1076 1292l-474-6 614 20z" fill="#cf81ae" stroke="#cf81ae" stroke-width="1.51"/><path d="M437 1065l112 143 202-233z" fill="#e182a6" stroke="#e182a6" stroke-width="1.51"/><path d="M2263 54l-87-296-116 277z" fill="#fbb99c" stroke="#fbb99c" stroke-width="1.51"/><path d="M2486 243L2263 54l39 325z" fill="#f0b2bb" stroke="#f0b2bb" stroke-width="1.51"/><path d="M482 834l-45 231 314-90z" fill="#ea98ac" stroke="#ea98ac" stroke-width="1.51"/><path d="M442 433l-39 269 213-132z" fill="#ffdfb6" stroke="#ffdfb6" stroke-width="1.51"/><path d="M2597 415l-111-172-184 136z" fill="#e9b0d7" stroke="#e9b0d7" stroke-width="1.51"/><path d="M2508 690l93 72-80-178z" fill="#e2a8ea" stroke="#e2a8ea" stroke-width="1.51"/><path d="M2516 1110l32-178-153 10z" fill="#c864d9" stroke="#c864d9" stroke-width="1.51"/><path d="M293 1004l144 61 45-231z" fill="#ea8f9f" stroke="#ea8f9f" stroke-width="1.51"/><path d="M549 1208l-296 62 349 16z" fill="#d47697" stroke="#d47697" stroke-width="1.51"/><path d="M2602 779l-1-17-93-72z" fill="#dd9ce7" stroke="#dd9ce7" stroke-width="1.51"/><path d="M2521 584l76-169-295-36z" fill="#e9b5e5" stroke="#e9b5e5" stroke-width="1.51"/><path d="M2312 1227l204-117-209-134z" fill="#c564d8" stroke="#c564d8" stroke-width="1.51"/><path d="M2548 932l54-153-94-89z" fill="#da95e6" stroke="#da95e6" stroke-width="1.51"/><path d="M2742 996l-140-217-54 153z" fill="#cc6fdc" stroke="#cc6fdc" stroke-width="1.51"/><path d="M848-151l-85-52 2 230z" fill="#feb557" stroke="#feb557" stroke-width="1.51"/><path d="M1402-269l-639 66 370 48z" fill="#ffbe7b" stroke="#ffbe7b" stroke-width="1.51"/><path d="M442 433l-120 5 81 264z" fill="#ffd9a9" stroke="#ffd9a9" stroke-width="1.51"/><path d="M548 143L424 267l317 134z" fill="#ffd090" stroke="#ffd090" stroke-width="1.51"/><path d="M265 154l159 113 124-124z" fill="#febf6a" stroke="#febf6a" stroke-width="1.51"/><path d="M424 267l-28 64 46 102z" fill="#ffd297" stroke="#ffd297" stroke-width="1.51"/><path d="M2312 1227l177-17 27-100z" fill="#bd56d1" stroke="#bd56d1" stroke-width="1.51"/><path d="M2597 415l-76 169 389-27z" fill="#e3a5e6" stroke="#e3a5e6" stroke-width="1.51"/><path d="M2753 378l-156 37 313 142z" fill="#e09dde" stroke="#e09dde" stroke-width="1.51"/><path d="M2386-153L2263 54l88-13z" fill="#f3a69f" stroke="#f3a69f" stroke-width="1.51"/><path d="M2386-153l-210-89 87 296z" fill="#f7a795" stroke="#f7a795" stroke-width="1.51"/><path d="M1909-163l267-79-474 4z" fill="#ffbc94" stroke="#ffbc94" stroke-width="1.51"/><path d="M1702-238l777-67-1077 36z" fill="#ffbb91" stroke="#ffbb91" stroke-width="1.51"/><path d="M2454 51l-103-10 135 202z" fill="#eda2ae" stroke="#eda2ae" stroke-width="1.51"/><path d="M2535-54l-81 105 151-25z" fill="#ea90a0" stroke="#ea90a0" stroke-width="1.51"/><path d="M130 382l192 56 74-107z" fill="#ffce8f" stroke="#ffce8f" stroke-width="1.51"/><path d="M396 331l-74 107 120-5z" fill="#ffd49b" stroke="#ffd49b" stroke-width="1.51"/><path d="M403 702L265 864l217-30z" fill="#fabea7" stroke="#fabea7" stroke-width="1.51"/><path d="M763-203L514-81 765 27z" fill="#feb758" stroke="#feb758" stroke-width="1.51"/><path d="M424 267L265 154l131 177z" fill="#ffc579" stroke="#ffc579" stroke-width="1.51"/><path d="M2454 51l-68-204-35 194z" fill="#f09d9d" stroke="#f09d9d" stroke-width="1.51"/><path d="M2535-54l-149-99 68 204z" fill="#ed9195" stroke="#ed9195" stroke-width="1.51"/><path d="M234 796l31 68 138-162z" fill="#fbbc9f" stroke="#fbbc9f" stroke-width="1.51"/><path d="M437 1065l-184 205 296-62z" fill="#db7796" stroke="#db7796" stroke-width="1.51"/><path d="M265 864l28 140 189-170z" fill="#f19e9d" stroke="#f19e9d" stroke-width="1.51"/><path d="M265 864l-55 103 83 37z" fill="#ed8d93" stroke="#ed8d93" stroke-width="1.51"/><path d="M118 625l116 171 169-94z" fill="#ffc69c" stroke="#ffc69c" stroke-width="1.51"/><path d="M2605 26l-151 25 32 192z" fill="#ea98ac" stroke="#ea98ac" stroke-width="1.51"/><path d="M2680 157l-194 86 111 172z" fill="#e69dc3" stroke="#e69dc3" stroke-width="1.51"/><path d="M2680 157l-75-131-119 217z" fill="#e791aa" stroke="#e791aa" stroke-width="1.51"/><path d="M234 796l-24 171 55-103z" fill="#f4a296" stroke="#f4a296" stroke-width="1.51"/><path d="M293 1004l-40 266 184-205z" fill="#e07792" stroke="#e07792" stroke-width="1.51"/><path d="M2602 779l195 32-196-49z" fill="#d88ee3" stroke="#d88ee3" stroke-width="1.51"/><path d="M2516 1110l226-114-194-64z" fill="#c254d5" stroke="#c254d5" stroke-width="1.51"/><path d="M2709 1177l33-181-226 114z" fill="#ba40d0" stroke="#ba40d0" stroke-width="1.51"/><path d="M763-203l-167-88-82 210z" fill="#feb053" stroke="#feb053" stroke-width="1.51"/><path d="M1402-269l-806-22 167 88z" fill="#ffb060" stroke="#ffb060" stroke-width="1.51"/><path d="M2753 378l-73-221-83 258z" fill="#e39bce" stroke="#e39bce" stroke-width="1.51"/><path d="M2910 557l-389 27 80 178z" fill="#dfa0e8" stroke="#dfa0e8" stroke-width="1.51"/><path d="M222 159l43-5 11-202z" fill="#feb85a" stroke="#feb85a" stroke-width="1.51"/><path d="M276-48l-11 202 283-11z" fill="#febd65" stroke="#febd65" stroke-width="1.51"/><path d="M322 438l-162 93 243 171z" fill="#ffd7a2" stroke="#ffd7a2" stroke-width="1.51"/><path d="M234 796L6 1015l204-48z" fill="#ef8f91" stroke="#ef8f91" stroke-width="1.51"/><path d="M2742 996l55-185-195-32z" fill="#ce75dd" stroke="#ce75dd" stroke-width="1.51"/><path d="M130 382l30 149 162-93z" fill="#ffcf93" stroke="#ffcf93" stroke-width="1.51"/><path d="M2489 1210l220-33-193-67z" fill="#b947cf" stroke="#b947cf" stroke-width="1.51"/><path d="M2742 996l141-30-86-155z" fill="#c25ad6" stroke="#c25ad6" stroke-width="1.51"/><path d="M265 154l-43 5 174 172z" fill="#ffbe67" stroke="#ffbe67" stroke-width="1.51"/><path d="M276-48l272 191-34-224z" fill="#febb60" stroke="#febb60" stroke-width="1.51"/><path d="M160 531l-42 94 285 77z" fill="#ffce9d" stroke="#ffce9d" stroke-width="1.51"/><path d="M32 619l86 6-90-67z" fill="#ffcb99" stroke="#ffcb99" stroke-width="1.51"/><path d="M151 1202l142-198-83-37z" fill="#e4748d" stroke="#e4748d" stroke-width="1.51"/><path d="M151 1202l102 68 40-266z" fill="#dd7089" stroke="#dd7089" stroke-width="1.51"/><path d="M222 159l-92 223 266-51z" fill="#ffc67b" stroke="#ffc67b" stroke-width="1.51"/><path d="M2694-145l-159 91 70 80z" fill="#e88291" stroke="#e88291" stroke-width="1.51"/><path d="M2694-145l-215-160 56 251z" fill="#ea7d8b" stroke="#ea7d8b" stroke-width="1.51"/><path d="M2535-54l-56-251-93 152z" fill="#ed878d" stroke="#ed878d" stroke-width="1.51"/><path d="M2386-153l93-152-303 63z" fill="#f4938d" stroke="#f4938d" stroke-width="1.51"/><path d="M2176-242l303-63-777 67z" fill="#feac8f" stroke="#feac8f" stroke-width="1.51"/><path d="M1402-269l1077-36-1883 14z" fill="#ffc08b" stroke="#ffc08b" stroke-width="1.51"/><path d="M53 379l107 152-30-149z" fill="#ffcb8f" stroke="#ffcb8f" stroke-width="1.51"/><path d="M347-209L276-48l238-33z" fill="#feae47" stroke="#feae47" stroke-width="1.51"/><path d="M2753 378l62-145-135-76z" fill="#e18dbb" stroke="#e18dbb" stroke-width="1.51"/><path d="M2830 5l-136-150-89 171z" fill="#e57b93" stroke="#e57b93" stroke-width="1.51"/><path d="M2844 214l-29 19 160 67z" fill="#dd89b6" stroke="#dd89b6" stroke-width="1.51"/><path d="M6 1015l145 187 59-235z" fill="#e4708a" stroke="#e4708a" stroke-width="1.51"/><path d="M596-291l-249 82L514-81z" fill="#fead4e" stroke="#fead4e" stroke-width="1.51"/><path d="M2915 695l-5-138-309 205z" fill="#d995e4" stroke="#d995e4" stroke-width="1.51"/><path d="M2709 1177l174-211-141 30z" fill="#b93ad0" stroke="#b93ad0" stroke-width="1.51"/><path d="M2915 695l-314 67 196 49z" fill="#d68ae2" stroke="#d68ae2" stroke-width="1.51"/><path d="M2958 911l-43-216-118 116z" fill="#d080dd" stroke="#d080dd" stroke-width="1.51"/><path d="M2975 300l-160-67-62 145z" fill="#dd91c7" stroke="#dd91c7" stroke-width="1.51"/><path d="M2815 233l29-19-164-57z" fill="#e184aa" stroke="#e184aa" stroke-width="1.51"/><path d="M118 625l-224 155 340 16z" fill="#ffbd97" stroke="#ffbd97" stroke-width="1.51"/><path d="M28 558l90 67 42-94z" fill="#ffcf9b" stroke="#ffcf9b" stroke-width="1.51"/><path d="M28 558l132-27L53 379z" fill="#ffcc94" stroke="#ffcc94" stroke-width="1.51"/><path d="M53 379l77 3 92-223z" fill="#ffc47d" stroke="#ffc47d" stroke-width="1.51"/><path d="M8-19l214 178 54-207z" fill="#feb350" stroke="#feb350" stroke-width="1.51"/><path d="M-100 94L53 379l169-220z" fill="#ffb65d" stroke="#ffb65d" stroke-width="1.51"/><path d="M2830 5l-225 21 75 131z" fill="#e387a7" stroke="#e387a7" stroke-width="1.51"/><path d="M2883 966l75-55-161-100z" fill="#c463d7" stroke="#c463d7" stroke-width="1.51"/><path d="M2915 695l103-89-108-49z" fill="#d897e2" stroke="#d897e2" stroke-width="1.51"/><path d="M3048 964l-90-53-75 55z" fill="#bb4fd1" stroke="#bb4fd1" stroke-width="1.51"/><path d="M3038 213L2830 5l14 209z" fill="#de80a3" stroke="#de80a3" stroke-width="1.51"/><path d="M2844 214L2830 5l-150 152z" fill="#e182a6" stroke="#e182a6" stroke-width="1.51"/><path d="M2709 1177l272 2-98-213z" fill="#b231ca" stroke="#b231ca" stroke-width="1.51"/><path d="M2489 1210l364 92-144-125z" fill="#ae36c7" stroke="#ae36c7" stroke-width="1.51"/><path d="M2312 1227l541 75-364-92z" fill="#b244ca" stroke="#b244ca" stroke-width="1.51"/><path d="M1506 1304l1347-2-541-75z" fill="#c172d3" stroke="#c172d3" stroke-width="1.51"/><path d="M1216 1306l1637-4-1347 2z" fill="#c98ad7" stroke="#c98ad7" stroke-width="1.51"/><path d="M-106 780l224-155-86-6z" fill="#ffc297" stroke="#ffc297" stroke-width="1.51"/><path d="M-106 780L6 1015l228-219z" fill="#f69f92" stroke="#f69f92" stroke-width="1.51"/><path d="M2910 557l65-257-222 78z" fill="#dc98d6" stroke="#dc98d6" stroke-width="1.51"/><path d="M3217 856l-199-250-103 89z" fill="#d08add" stroke="#d08add" stroke-width="1.51"/><path d="M3073 575l-98-275-65 257z" fill="#d999db" stroke="#d999db" stroke-width="1.51"/><path d="M2958 911l259-55-302-161z" fill="#ca79da" stroke="#ca79da" stroke-width="1.51"/><path d="M2853 1302l128-123-272-2z" fill="#aa2bc4" stroke="#aa2bc4" stroke-width="1.51"/><path d="M-219 846l113-66-154-177z" fill="#ffb190" stroke="#ffb190" stroke-width="1.51"/><path d="M-260 603l154 177L32 619z" fill="#ffbf94" stroke="#ffbf94" stroke-width="1.51"/><path d="M2981 1179l67-215-165 2z" fill="#b439cb" stroke="#b439cb" stroke-width="1.51"/><path d="M3018 606l55-31-163-18z" fill="#d89ae2" stroke="#d89ae2" stroke-width="1.51"/><path d="M3228 664l-155-89-55 31z" fill="#d294de" stroke="#d294de" stroke-width="1.51"/><path d="M145-240L68-104l208 56z" fill="#fda535" stroke="#fda535" stroke-width="1.51"/><path d="M53 379l-291 32L28 558z" fill="#ffc78d" stroke="#ffc78d" stroke-width="1.51"/><path d="M347-209l-202-31L276-48z" fill="#fda536" stroke="#fda536" stroke-width="1.51"/><path d="M596-291l-451 51 202 31z" fill="#fea33d" stroke="#fea33d" stroke-width="1.51"/><path d="M-100 94l-51-92-5 62z" fill="#feaa4d" stroke="#feaa4d" stroke-width="1.51"/><path d="M68-104L8-19l268-29z" fill="#fda939" stroke="#fda939" stroke-width="1.51"/><path d="M3145 269l-107-56-63 87z" fill="#d887b5" stroke="#d887b5" stroke-width="1.51"/><path d="M2975 300l63-87-194 1z" fill="#dc86b2" stroke="#dc86b2" stroke-width="1.51"/><path d="M2830 5l123-87-259-63z" fill="#e1728c" stroke="#e1728c" stroke-width="1.51"/><path d="M3038 213l-85-295-123 87z" fill="#dd7d9f" stroke="#dd7d9f" stroke-width="1.51"/><path d="M2694-145l177-117-392-43z" fill="#e66c85" stroke="#e66c85" stroke-width="1.51"/><path d="M151 1202l-217 92 319-24z" fill="#d56680" stroke="#d56680" stroke-width="1.51"/><path d="M253 1270l-319 24 668-8z" fill="#d36a83" stroke="#d36a83" stroke-width="1.51"/><path d="M602 1286l-668 8 1282 12z" fill="#d0779a" stroke="#d0779a" stroke-width="1.51"/><path d="M6 1015l-72 279 217-92z" fill="#dd6883" stroke="#dd6883" stroke-width="1.51"/><path d="M-245 1052l179 242 72-279z" fill="#e06482" stroke="#e06482" stroke-width="1.51"/><path d="M2953-82l-82-180-177 117z" fill="#e16b87" stroke="#e16b87" stroke-width="1.51"/><path d="M-29-176L8-19l60-85z" fill="#fda233" stroke="#fda233" stroke-width="1.51"/><path d="M8-19L-100 94l322 65z" fill="#feb255" stroke="#feb255" stroke-width="1.51"/><path d="M3038 213l209-325-294 30z" fill="#d97594" stroke="#d97594" stroke-width="1.51"/><path d="M3073 575l83-23-181-252z" fill="#d696d8" stroke="#d696d8" stroke-width="1.51"/><path d="M3228 664l-72-112-83 23z" fill="#d194dd" stroke="#d194dd" stroke-width="1.51"/><path d="M-106 780l-113 66L6 1015z" fill="#f4948d" stroke="#f4948d" stroke-width="1.51"/><path d="M-260 603l292 16-4-61z" fill="#ffc797" stroke="#ffc797" stroke-width="1.51"/><path d="M3156 552l-11-283-170 31z" fill="#d590cc" stroke="#d590cc" stroke-width="1.51"/><path d="M2953-82l4-136-86-44z" fill="#df6884" stroke="#df6884" stroke-width="1.51"/><path d="M3247-112l-290-106-4 136z" fill="#db6983" stroke="#db6983" stroke-width="1.51"/><path d="M-100 94l-116 243 269 42z" fill="#ffb86c" stroke="#ffb86c" stroke-width="1.51"/><path d="M145-240l-174 64 97 72z" fill="#fc9f30" stroke="#fc9f30" stroke-width="1.51"/><path d="M-100 94l-56-30-60 273z" fill="#feaa50" stroke="#feaa50" stroke-width="1.51"/><path d="M-216 337l-22 74 291-32z" fill="#ffbf81" stroke="#ffbf81" stroke-width="1.51"/><path d="M-238 411l-22 192 288-45z" fill="#ffc591" stroke="#ffc591" stroke-width="1.51"/><path d="M-151 2l51 92L8-19z" fill="#feaa49" stroke="#feaa49" stroke-width="1.51"/><path d="M-216 337l-66-475 44 549z" fill="#ffa952" stroke="#ffa952" stroke-width="1.51"/><path d="M3048 964l169-108-259 55z" fill="#bd59d1" stroke="#bd59d1" stroke-width="1.51"/><path d="M3156 552l114-324-125 41z" fill="#d28cc6" stroke="#d28cc6" stroke-width="1.51"/><path d="M3290 1016l-73-160-169 108z" fill="#b44aca" stroke="#b44aca" stroke-width="1.51"/><path d="M3217 856l11-192-210-58z" fill="#cc88da" stroke="#cc88da" stroke-width="1.51"/><path d="M-29-176L-151 2 8-19z" fill="#fda233" stroke="#fda233" stroke-width="1.51"/><path d="M-156 64l-126-202 66 475z" fill="#ffa84e" stroke="#ffa84e" stroke-width="1.51"/><path d="M-219 846l-26 206 251-37z" fill="#eb7887" stroke="#eb7887" stroke-width="1.51"/><path d="M-260 603l15 449 26-206z" fill="#fa9d8c" stroke="#fa9d8c" stroke-width="1.51"/><path d="M3217 856l73 160-62-352z" fill="#be6cd1" stroke="#be6cd1" stroke-width="1.51"/><path d="M2981 1179l279-47-212-168z" fill="#ab2cc5" stroke="#ab2cc5" stroke-width="1.51"/><path d="M2853 1302l407-170-279 47z" fill="#a527c1" stroke="#a527c1" stroke-width="1.51"/><path d="M3260 1132l30-116-242-52z" fill="#aa31c5" stroke="#aa31c5" stroke-width="1.51"/><path d="M3228 664l42-436-114 324z" fill="#d092d4" stroke="#d092d4" stroke-width="1.51"/><path d="M3145 269l125-41-232-15z" fill="#d481ab" stroke="#d481ab" stroke-width="1.51"/><path d="M3290 1016l-20-788-42 436z" fill="#cb8ed8" stroke="#cb8ed8" stroke-width="1.51"/><path d="M-245 1052l-41 163 220 79z" fill="#dc5c7d" stroke="#dc5c7d" stroke-width="1.51"/><path d="M-260 603l-26 612 41-163z" fill="#ed7585" stroke="#ed7585" stroke-width="1.51"/><path d="M2957-218l280-29-366-15z" fill="#dc5f7e" stroke="#dc5f7e" stroke-width="1.51"/><path d="M3270 228l-23-340-209 325z" fill="#d4799c" stroke="#d4799c" stroke-width="1.51"/><path d="M-29-176l-253 38L-151 2z" fill="#fd9b2d" stroke="#fd9b2d" stroke-width="1.51"/><path d="M-151 2l-131-140 126 202z" fill="#fea039" stroke="#fea039" stroke-width="1.51"/><path d="M-238 411l-44-549 22 741z" fill="#ffb36e" stroke="#ffb36e" stroke-width="1.51"/><path d="M-260 603l-22-741-4 1353z" fill="#ffc191" stroke="#ffc191" stroke-width="1.51"/><path d="M145-240l-427 102 253-38z" fill="#fc9a2c" stroke="#fc9a2c" stroke-width="1.51"/><path d="M3247-112l-10-135-280 29z" fill="#d7627e" stroke="#d7627e" stroke-width="1.51"/><path d="M2871-262l366 15-758-58z" fill="#e15f80" stroke="#e15f80" stroke-width="1.51"/></svg>