<svg xmlns="http://www.w3.org/2000/svg" viewBox="0 0 402.32 125.56"><defs><style>.cls-1{fill:#333;}.cls-2{fill:#48c4e5;}.cls-3{fill:#96d8e9;}</style></defs><title>Nrwl_ColorHorizontal</title><g id="Layer_2" data-name="Layer 2"><g id="Color_on_white_horizontal" data-name="Color on white horizontal"><g id="LOGO"><polygon class="cls-1" points="123.57 110.88 123.57 125.56 146.66 125.56 146.66 113.05 123.57 110.88"/><g id="whale"><g id="bdy"><path id="tusk" class="cls-2" d="M91.06,105.25a3,3,0,0,1,3-3l.27,0h0c.19,0,.16,0,.63.12L165.42,115l-71.81-6.75h0A3,3,0,0,1,91.06,105.25Z"/><path class="cls-2" d="M123.92,50.82l-.19,0C119,50,114.27,46.52,112.67,42h0A57.4,57.4,0,1,0,40.3,112.24,74.29,74.29,0,0,0,90.38,109c3.78-1.79,4.45-4.63,4.45-6.48s-1.64-3.07-2.24-3.89a2.31,2.31,0,0,1-.54-1.18h0A27.51,27.51,0,0,0,64.61,71.85H62.84a23.35,23.35,0,0,1-16.68-39.7,30.16,30.16,0,0,1,22-9.42A30.55,30.55,0,0,1,97.73,45.42a15.3,15.3,0,0,1-9.11,5.36A15.15,15.15,0,0,0,76.28,63.32c5.88,0,9.79,8,20.71,8a9.91,9.91,0,0,0,9.18-6.16,9.93,9.93,0,0,0,9.19,6.16,19.61,19.61,0,0,0,8.56-1.9Zm-64.79,48c.35-1.46,1.52-.84,3.06-.46s2.86.36,2.51,1.81a2.87,2.87,0,0,1-5.57-1.35Z"/><g id="right_fin" data-name="right fin"><path class="cls-2" d="M52.48,69.43a9.4,9.4,0,0,1,8.34-7.36v0A8.43,8.43,0,0,0,64,68.75,8.38,8.38,0,0,1,67,72v3H52.48Z"/></g></g><g id="highlights"><path class="cls-3" d="M12.87,93.84A57.61,57.61,0,0,1,43.34,1.73C24.71,7,3.87,24,3.87,53.73c0,37.66,31.34,45,45.91,51.72,8.85,4.11,12,7.56,13.19,9.64q-1.08,0-2.16,0a73.81,73.81,0,0,1-20.51-2.88c-6.84-2.07-14.65-6.64-20.1-10.93.77.11-3.85-2.6-8.39-8.82"/><ellipse class="cls-3" cx="24.55" cy="61.21" rx="1.95" ry="2.79" transform="translate(-13.18 7.12) rotate(-13.04)"/><ellipse class="cls-3" cx="32.35" cy="72.49" rx="2.56" ry="3.66" transform="translate(-38.7 37.09) rotate(-39.46)"/><ellipse class="cls-3" cx="31.48" cy="47.4" rx="2.79" ry="1.95" transform="translate(-18.05 75.4) rotate(-85.89)"/><ellipse class="cls-3" cx="24.76" cy="51.03" rx="0.98" ry="1.4" transform="translate(-2.13 1.09) rotate(-2.42)"/><path id="left_fin" data-name="left fin" class="cls-3" d="M38.18,105.66a28.78,28.78,0,0,1-15,7.18q-1.21.18-2.46.27A29.56,29.56,0,0,1,16,113h0a33.79,33.79,0,0,0-5.7-.1,33.3,33.3,0,0,0-9.48,2h0a11.67,11.67,0,0,1,10.1-15.83,11.4,11.4,0,0,1,6.55,1.5h0A12,12,0,0,0,24,102.09a11.63,11.63,0,0,0,5.8-2s1.34-1.17,4.5.87C38.89,103.94,38.18,105.66,38.18,105.66Z"/></g></g><polygon class="cls-1" points="179.75 43.56 179.75 87.26 142.97 43.56 123.57 43.56 123.57 103.1 146.66 108.56 146.66 81.87 183.44 125.56 202.84 125.56 202.84 43.56 179.75 43.56"/><path class="cls-1" d="M244.47,63.19A34.5,34.5,0,0,1,257.15,61v20A48.15,48.15,0,0,0,252,80.7q-7.26,0-11.37,3.86T236.55,96.4v29.16H213.94V62.07h21.54v7.62A21,21,0,0,1,244.47,63.19Z"/><path class="cls-1" d="M362.16,62.07l-18.35,63.49h-21.9l-7.53-29.1-8,29.1H284.48L266.13,62.07h21.43l8.59,32.06,9.07-32.06H324.5l8.71,32.41,9.07-32.41Z"/><path class="cls-1" d="M393.28,28.64H370.61v74c0,19.88,12.84,22.41,24.89,22.41,3.67,0,6.82-.35,6.82-.35V107.44s-1.31.12-2.75.12c-5.11,0-6.29-2-6.29-7.59Z"/></g></g></g></svg>